<?xml version="1.0" encoding="UTF-8" standalone="no"?>
<!DOCTYPE svg PUBLIC "-//W3C//DTD SVG 1.1//EN" "http://www.w3.org/Graphics/SVG/1.1/DTD/svg11.dtd">
<svg width="100%" height="100%" viewBox="0 0 2200 2384" version="1.1" xmlns="http://www.w3.org/2000/svg" xmlns:xlink="http://www.w3.org/1999/xlink" xml:space="preserve" style="fill-rule:evenodd;clip-rule:evenodd;stroke-linejoin:round;stroke-miterlimit:1.41421;">
    <g id="devMint-Logo" transform="matrix(1.56959,0,0,1.56959,-1.07497,3.09382)">
        <g id="Cloud-pointer" transform="matrix(1,0,0,1,-150.225,-55.8279)">
            <path d="M1281.39,1314.57C1285.71,1328.29 1303.98,1365.13 1327.75,1426.22C1361.01,1531.54 1337.16,1573.15 1337.16,1572.56C1337.16,1567.23 1315.44,1513.26 1277.59,1468.1C1239.81,1423.03 1182.6,1385.36 1168.87,1386.31C1166.29,1389.91 1281.39,1314.57 1281.39,1314.57Z" style="fill:url(#_Linear1);"/>
        </g>
        <g id="Cloud" transform="matrix(0.637109,0,0,0.637109,0.684871,-1.9711)">
            <path d="M1099.92,2211.08C492.857,2211.08 0,1715.7 0,1105.54C0,495.376 492.857,0 1099.92,0C1706.98,0 2199.84,495.376 2199.84,1105.54C2199.84,1382.72 2098.13,1636.22 1930.21,1830.35C1919.26,1796.07 1887.99,1697.49 1851.85,1615.02C1814.86,1530.58 1769.95,1473.8 1757.42,1448.42C1755.78,1445.09 1722.27,1544.42 1721.39,1542.67C1719.9,1539.7 1681.65,1408.05 1558.26,1269.36C1469.96,1170.12 1378.92,1093.95 1339.38,1054.39C1337.42,1052.43 1336.88,1097.04 1342.73,1143.6C1348.85,1192.32 1361.4,1243.13 1361.18,1243C1344.32,1233.23 1228.29,1147.94 1110.69,1077.5C994.511,1007.9 869.422,985.363 858.368,985.556C857.15,985.577 879.24,1033.17 899.094,1065.14C921.039,1100.46 949.918,1145.77 949.788,1145.72C942.527,1142.68 864.303,1088.48 766.948,1049.95C672.427,1012.54 622.118,994.192 536.403,987.974C570.176,985.401 735.117,995.554 742.974,993.282C743.276,993.195 686.871,936.507 667.391,915.481C664.135,911.966 831.437,897.771 973.463,926.882C1113.45,955.576 1183.74,985.472 1188.02,986.537C1207.43,991.359 1121.8,848.881 1126.7,851.133C1133.4,854.219 1277.84,874.899 1409.93,954.905C1564.15,1048.31 1709.02,1203.06 1712.58,1207.16C1713.94,1208.74 1710.42,1064.35 1711.19,1064.22C1715.42,1063.49 1828.47,1220.08 1867.01,1298.74C1939.87,1447.43 1963.06,1543.54 1973.95,1594.89C1974.36,1595.6 2162.12,1317.16 1878.83,857.592C1629.65,453.366 1305.35,462.985 1271.86,470.047C1360.28,535.83 1399.53,635.017 1402.86,639.977C1407.53,646.923 1285.14,529.261 1095.52,505.458C856.652,475.472 642.061,577.483 642.078,578.124C642.167,581.483 787.712,640.925 786.369,641.995C782.402,645.154 509.44,690.757 352.262,830.053C180.711,982.087 109.584,1235.86 109.584,1242.49C109.584,1242.99 225.411,1151.26 398.482,1203.81C493.902,1232.79 596.436,1339.26 686.491,1397.32C798.47,1469.52 888.318,1492.07 888.008,1492.56C887.015,1494.1 816.963,1513.73 798.283,1513.73C794.788,1513.73 866.362,1600.37 983.34,1654.39C1098.17,1707.43 1258.32,1727.87 1267.02,1727.87C1268.68,1727.87 1188.54,1790.38 1189.06,1790.38C1195.86,1790.38 1306.87,1818.72 1426.65,1827.78C1555.15,1837.51 1692.92,1828.08 1697.72,1830.48C1698.75,1831 1737.63,1905.24 1773.67,1979.2C1587.92,2124.18 1354.77,2210.68 1101.7,2211.08L1099.92,2211.08Z" style="fill:url(#_Linear2);"/>
        </g>
    </g>
    <defs>
        <linearGradient id="_Linear1" x1="0" y1="0" x2="1" y2="0" gradientUnits="userSpaceOnUse" gradientTransform="matrix(1800.69,-2079.47,2079.47,1800.69,473.552,1460.56)"><stop offset="0%" style="stop-color:rgb(26,160,103);stop-opacity:1"/><stop offset="47%" style="stop-color:rgb(34,168,172);stop-opacity:1"/><stop offset="100%" style="stop-color:rgb(36,171,193);stop-opacity:1"/></linearGradient>
        <linearGradient id="_Linear2" x1="0" y1="0" x2="1" y2="0" gradientUnits="userSpaceOnUse" gradientTransform="matrix(2826.34,-3263.91,3263.91,2826.34,506.416,2207.95)"><stop offset="0%" style="stop-color:rgb(26,160,103);stop-opacity:1"/><stop offset="47%" style="stop-color:rgb(34,168,172);stop-opacity:1"/><stop offset="100%" style="stop-color:rgb(36,171,193);stop-opacity:1"/></linearGradient>
    </defs>
</svg>
